<svg width="62" height="62" viewBox="0 0 62 62" fill="none" xmlns="http://www.w3.org/2000/svg">
<circle cx="31" cy="31" r="31" fill="#EEEBFF"/>
<path d="M26.1133 38.4688L20.9909 35.5114L29.7182 20.3954L34.9439 23.4124C36.4447 24.2789 37.5592 25.3258 38.2873 26.5532C39.0233 27.7785 39.3563 29.1222 39.2863 30.5842C39.2164 32.0463 38.7283 33.5621 37.8221 35.1318C36.913 36.7064 35.8389 37.8905 34.6 38.6842C33.3659 39.4807 32.0256 39.8648 30.5788 39.8365C29.137 39.8111 27.6485 39.3552 26.1133 38.4688ZM25.0972 34.7231L27.3483 36.0228C28.4013 36.6308 29.3905 36.946 30.3157 36.9684C31.2438 36.986 32.1065 36.7132 32.904 36.1501C33.7043 35.5821 34.4383 34.72 35.1059 33.5636C35.7735 32.4073 36.1503 31.3455 36.2364 30.3783C36.3253 29.4061 36.1322 28.5303 35.6572 27.7508C35.1899 26.9693 34.4445 26.2831 33.421 25.6922L31.0886 24.3456L25.0972 34.7231Z" fill="#7B61FF"/>
</svg>
